<svg width="30" height="16" viewBox="0 0 30 16" fill="none" xmlns="http://www.w3.org/2000/svg">
<path d="M0.632819 8C0.632819 7.45258 1.11648 7.00881 1.71311 7.00881H28.7203C29.317 7.00881 29.8006 7.45258 29.8006 8C29.8006 8.54742 29.317 8.99119 28.7203 8.99119H1.71311C1.11648 8.99119 0.632819 8.54742 0.632819 8Z" fill="#1D1D1D"/>
<path d="M0.316409 8.70088C-0.10547 8.31379 -0.10547 7.6862 0.316409 7.29912L7.95521 0.290314C8.37709 -0.0967715 9.06109 -0.0967713 9.48297 0.290314C9.90485 0.6774 9.90485 1.30499 9.48297 1.69208L1.84417 8.70088C1.42229 9.08797 0.738289 9.08797 0.316409 8.70088Z" fill="#1D1D1D"/>
<path d="M0.316409 8.70088C-0.10547 8.31379 -0.10547 7.6862 0.316409 7.29912C0.738289 6.91203 1.42229 6.91203 1.84417 7.29912L9.48297 14.3079C9.90485 14.695 9.90485 15.3226 9.48297 15.7097C9.06109 16.0968 8.37709 16.0968 7.95521 15.7097L0.316409 8.70088Z" fill="#1D1D1D"/>
</svg>
