<svg width="21" height="17" viewBox="0 0 21 17" fill="none" xmlns="http://www.w3.org/2000/svg">
<path d="M0.566223 9.6158C-0.188741 8.86256 -0.188741 7.64132 0.566223 6.88809C1.32119 6.13485 2.54523 6.13485 3.30019 6.88809L10.1351 13.7074C10.8901 14.4606 10.8901 15.6818 10.1351 16.4351C9.38014 17.1883 8.1561 17.1883 7.40114 16.4351L0.566223 9.6158Z" fill="#15BB70"/>
<path d="M17.5498 0.739994C18.2059 -0.0978426 19.4186 -0.246393 20.2583 0.408196C21.0981 1.06279 21.247 2.27264 20.5909 3.11047L10.3071 16.243C9.65098 17.0808 8.43836 17.2294 7.5986 16.5748C6.75884 15.9202 6.60995 14.7104 7.26604 13.8725L17.5498 0.739994Z" fill="#15BB70"/>
</svg>
